<?xml version="1.0" encoding="UTF-8"?>
<svg version="1.0" xmlns="http://www.w3.org/2000/svg" xmlns:xlink="http://www.w3.org/1999/xlink" width="600" height="360">
<rect width="600" height="360" fill="#ed2939"/>
<g id="q1">
<path d="M20,20 0,0V45H300V90H0V135H300V180L280,160z" fill="#fff"/>
<path d="M20,160 0,180H50V0H100V180H150V0H200V180H250V0H300L280,20z" fill="#fff"/>
<rect width="260" height="140" x="20" y="20" fill="#002395"/>
<g id="fleur" fill="#ffd203">
<path d="M43.85562,90.81755C34.10027,86.95639 29.29778,81.11194 28.78212,72.86116C28.45141,67.90107 33.40226,62.08328 38.70238,61.94886C55.25989,61.50106 60.79549,88.49615 60.69565,95.08521C59.9966,95.0832 56.55231,95.01447 55.69784,95.04757C54.94321,90.88637 55.59129,85.78863 50.3005,81.48978C45.0097,77.19102 42.67053,80.46673 42.00911,83.11213C41.3477,85.75753 44.45117,91.08649 43.85562,90.81755z"/>
<path d="M88.07878,90.81755C97.83413,86.9563 102.63662,81.11194 103.15228,72.86116C103.48299,67.90098 98.53213,62.08319 93.23201,61.94886C76.67451,61.50097 71.1389,88.49615 71.23874,95.08521C71.93779,95.08312 75.38208,95.01438 76.23655,95.04749C76.99119,90.88629 76.3431,85.78855 81.6339,81.48978C86.9247,77.19102 89.26387,80.46665 89.92528,83.11213C90.5867,85.75744 87.48322,91.08649 88.07878,90.81755z"/>
<path d="M65.82955,30.46155C54.57878,42.16034 51.55764,54.05875 59.05893,73.11877C61.63211,79.48498 62.72111,87.12392 62.61543,95.06404C63.70443,95.08922 68.34061,95.03633 69.43876,94.95836C69.34231,87.11469 70.64275,78.85998 73.2067,72.38801C81.89352,52.92366 75.63299,39.72056 66.1282,30.46155L65.97887,30.46155 z"/>
<path d="M59.91872,99.55926C57.61526,105.70714 53.54964,108.03072 50.22636,109.6589C55.2916,112.05706 61.14598,109.45252 62.2477,108.21254C62.11371,109.94605 61.97649,114.63049 62.60924,117.79434C63.03779,120.34557 64.12252,121.81528 65.95387,123.85075C67.85213,121.86206 69.02616,120.25949 69.65891,117.9996C70.42774,114.71883 69.61422,110.06514 69.68226,108.32745C70.56069,109.40791 77.56679,112.00809 82.17683,109.7482C77.88478,107.87756 73.72558,105.69956 72.37174,99.44434C71.86984,99.47527 61.18422,99.46883 59.91872,99.46883z"/>
<rect x="52.77988" y="95.24809" width="26.65843" height="3.9655"/>
</g>
<use xlink:href="#fleur" x="84" y="30"/>
<use xlink:href="#fleur" x="168"/>
</g>
<g id="q2">
<rect x="330" y="30" width="240" height="120" fill="#002395"/>
<path d="M570,70V30H490zM410,30H330L570,150V110zM330,70V110L410,150H490z" fill="#ffd203"/>
</g>
<use xlink:href="#q2" x="-300" y="180"/>
<use xlink:href="#q1" x="300" y="180"/>
</svg>