<?xml version="1.0" encoding="UTF-8" standalone="no"?>
<!-- Created with Inkscape (http://www.inkscape.org/) -->

<svg
   xmlns:dc="http://purl.org/dc/elements/1.1/"
   xmlns:cc="http://creativecommons.org/ns#"
   xmlns:rdf="http://www.w3.org/1999/02/22-rdf-syntax-ns#"
   xmlns:svg="http://www.w3.org/2000/svg"
   xmlns="http://www.w3.org/2000/svg"
   xmlns:xlink="http://www.w3.org/1999/xlink"
   xmlns:sodipodi="http://sodipodi.sourceforge.net/DTD/sodipodi-0.dtd"
   xmlns:inkscape="http://www.inkscape.org/namespaces/inkscape"
   version="1.0"
   width="1000"
   height="600"
   id="Flag of Schleswig-Holstein"
   inkscape:version="0.48.1 "
   sodipodi:docname="AJAX.svg">
  <metadata
     id="metadata51">
    <rdf:RDF>
      <cc:Work
         rdf:about="">
        <dc:format>image/svg+xml</dc:format>
        <dc:type
           rdf:resource="http://purl.org/dc/dcmitype/StillImage" />
      </cc:Work>
    </rdf:RDF>
  </metadata>
  <sodipodi:namedview
     pagecolor="#ffffff"
     bordercolor="#666666"
     borderopacity="1"
     objecttolerance="10"
     gridtolerance="10"
     guidetolerance="10"
     inkscape:pageopacity="0"
     inkscape:pageshadow="2"
     inkscape:window-width="1280"
     inkscape:window-height="1004"
     id="namedview49"
     showgrid="false"
     inkscape:zoom="4.9846975"
     inkscape:cx="501.67884"
     inkscape:cy="98.772466"
     inkscape:window-x="-8"
     inkscape:window-y="-8"
     inkscape:window-maximized="1"
     inkscape:current-layer="g2200" />
  <defs
     id="defs2035" />
  <rect
     width="1000"
     height="200"
     x="0"
     y="0"
     style="fill:#0039ad"
     id="blue stripe" />
  <rect
     width="1000"
     height="200"
     x="0"
     y="200"
     style="fill:white"
     id="white stripe" />
  <rect
     width="1000"
     height="200"
     x="0"
     y="400"
     style="fill:#d61810"
     id="red stripe" />
  <g
     transform="translate(-7.95289,-4.36929)"
     id="g2200">
    <path
       d="M 507.95289,163.82307 C 507.95289,163.82307 507.95289,439.61772 507.95289,451.43531 C 516.26585,442.63336 530.44676,432.36442 569.07754,431.14192 C 625.31221,428.94144 627.7572,383.2202 627.7572,383.2202 C 627.7572,383.2202 634.11368,161.86708 634.11368,157.30327 C 581.62815,164.14923 507.95289,163.82307 507.95289,163.82307 z "
       style="fill:#d5170f"
       id="red_area" />
    <path
       d="M 507.95289,163.82307 C 507.95289,163.82307 507.95289,439.61772 507.95289,451.43531 C 499.63994,442.63336 485.45902,432.36442 446.82825,431.14192 C 390.59357,428.94144 388.14859,383.2202 388.14859,383.2202 C 388.14859,383.2202 381.7921,161.86708 381.7921,157.30327 C 434.27788,164.14923 507.95289,163.82307 507.95289,163.82307 z "
       style="fill:#ffd600"
       id="yellow_area" />
    <path
       d="M 507.95289,163.82307 C 507.95289,163.82307 581.62815,164.14923 634.11368,157.30327 C 634.11368,161.86708 627.7572,383.2202 627.7572,383.2202 C 627.7572,383.2202 625.31221,428.94144 569.07754,431.14192 C 530.44676,432.36442 516.26585,442.63336 507.95289,451.43531 C 499.63994,442.63336 485.45902,432.36442 446.82825,431.14192 C 390.59357,428.94144 388.14859,383.2202 388.14859,383.2202 C 388.14859,383.2202 381.7921,161.86708 381.7921,157.30327 C 434.27788,164.14923 507.95289,163.82307 507.95289,163.82307 z "
       style="fill:none;stroke:black;stroke-width:5.86796618"
       id="coat" />
    <polygon
       points="277.99902,49.833984 332.49902,70.833984 354.49902,188.83398 361.99902,57.833984 391.99902,161.33398 421.49902,51.833984 422.49902,184.83398 449.99902,65.333984 505.99902,41.833984 505.99902,103.83398 442.49902,189.33398 507.99902,183.83398 444.99902,239.33398 505.49902,270.83398 450.49902,300.83398 501.99902,375.83398 428.49902,353.33398 493.49902,490.33398 396.99902,397.83398 419.49902,517.83398 375.99902,548.83398 338.99902,514.33398 366.49902,407.83398 270.99902,497.33398 344.49902,352.83398 269.99902,377.83398 328.99902,298.33398 273.49902,270.83398 329.99902,239.83398 271.99902,188.83398 335.99902,189.33398 275.99902,110.83398 277.99902,49.833984 "
       transform="matrix(0.488997,0,0,0.488997,378.8582,153.9617)"
       style="fill:white;stroke:none;stroke-width:1.25000000000000000"
       id="star" />
    <g
       transform="matrix(0.488997,0,0,0.488997,378.8582,153.9617)"
       id="lion">
      <path
         d="M 203.9292,182.40527 L 230.63281,151.92773 C 230.63281,151.92773 234.4043,147.28467 234.9873,142.93066 C 235.56982,138.57666 225.69678,131.60937 225.11914,127.54883 C 225.37012,125.50977 225.65576,123.40771 227.1958,119.81592 C 230.04834,119.55518 231.9375,119.99805 233.24707,120.29199 C 237.88965,125.22607 236.14746,129.58008 236.14746,130.74316 C 236.14746,131.90527 241.66113,129.00293 241.66113,129.00293 C 241.66113,129.00293 244.85547,120.00586 247.75781,119.4209 C 250.66064,118.84375 252.39795,121.45459 252.98096,124.06592 C 253.56299,126.68018 250.36914,131.32324 243.1123,135.96533 C 235.8584,140.6084 253.85205,131.61133 256.46582,140.89941 C 257.62598,147.28955 244.56152,149.02979 244.56152,149.02979 C 244.56152,149.02979 246.01562,154.25537 250.0752,154.54102 C 254.14014,154.83301 251.4707,157.09473 252.34229,159.41992 C 253.20801,161.74219 244.85547,165.57422 239.0498,158.31543 C 233.24414,151.05615 219.60254,207.08057 219.60254,207.08057 C 219.60254,207.08057 220.47363,211.43457 216.41113,210.27441 C 212.3457,209.11182 203.9292,183.2793 203.9292,182.40527 z "
         style="fill:#24459c;stroke:#010101"
         id="path868" />
      <path
         d="M 217.99902,66.833984 C 217.99902,72.986328 212.33252,87.500977 196.33252,87.167481 C 177.63525,86.625488 177.42822,71.04541 167.33252,70.500977 C 150.99902,69.833984 148.99902,95.167481 148.99902,95.167481 C 148.99902,95.167481 150.7373,113.84082 134.9043,126.95605 C 121.34326,136.45947 109.43848,138.4375 97.463379,134.4458 C 85.478027,130.44922 38.049805,124.46094 40.046387,142.43408 C 42.044433,160.40723 68.005859,166.39551 68.005859,166.39551 C 68.005859,166.39551 99.955566,171.88916 107.94434,172.38818 C 115.93262,172.88672 133.90625,167.89453 133.90625,167.89453 C 133.90625,167.89453 129.90918,162.90234 127.41162,158.9082 C 126.16553,156.91016 134.44336,158.35352 139.02246,157.16553 C 143.60693,155.97754 142.45703,151.86426 145.00244,150.94238 C 136.37012,149.01465 129.80273,148.72363 129.20508,140.89209 C 136.22852,143.2168 137.92285,142.21924 139.92383,141.21875 C 141.91992,140.2207 146.07373,129.74463 150.06787,126.24902 C 154.0625,122.75391 150.44287,113.55469 152.31494,112.08301 C 154.20166,111.01465 156.88867,115.02637 159.17334,116.49805 C 159.17334,116.49805 174.3457,118.96484 170.85303,125.95313 C 167.35986,132.94141 176.34668,116.46777 186.32861,117.46582 C 196.31543,118.46338 208.79492,124.95752 208.79492,124.95752 C 208.79492,124.95752 210.79297,131.9458 205.30225,131.9458 C 199.80859,131.9458 207.29492,142.92871 204.80029,143.92627 C 202.30322,144.92139 176.34131,144.92139 180.83496,151.91211 C 185.32813,158.90576 197.80957,161.89941 201.30518,161.40332 C 204.80029,160.90381 205.79883,169.38672 201.80664,170.38916 C 197.8125,171.38477 190.82178,170.88574 193.81787,173.3833 C 196.81738,175.88086 203.30615,184.36865 204.80322,183.37061 C 206.2998,182.37207 212.78955,186.86621 213.78711,193.854 C 214.78516,200.8418 212.78955,206.83496 212.78955,206.83496 C 212.78955,206.83496 205.30225,199.34766 204.80029,196.84814 C 204.29883,194.35059 205.30225,215.31982 208.79199,215.82178 C 212.28516,216.32031 211.28955,224.80762 215.28125,223.80713 C 219.27832,222.81201 206.29492,225.80566 205.29687,223.80713 C 204.29883,221.80908 197.80469,220.81348 197.80469,217.3208 C 197.80469,213.8252 193.81299,226.30762 193.81299,226.30762 C 193.81299,226.30762 237.25098,259.25684 237.25098,258.76074 C 237.25098,258.26172 243.30957,243.99463 251.2959,253.97656 C 251.42529,255.9873 247.73242,265.74902 247.73242,265.74902 C 247.73242,265.74902 254.72021,271.73926 252.72461,273.73779 C 250.73145,275.73096 242.24121,276.23242 240.24512,274.7334 C 238.24951,273.23633 245.2373,281.22461 241.74512,285.71777 C 238.24951,290.21094 235.75195,284.71729 233.25439,285.21924 C 230.75684,285.71777 224.76953,283.22314 225.26855,280.22412 C 225.76758,277.22803 230.7627,273.23633 229.76172,272.23779 C 228.76123,271.24268 216.28174,274.7334 215.78271,278.23047 C 215.28125,281.72363 208.29102,266.24561 209.29395,265.74902 C 210.29199,265.25 215.78271,263.25146 216.78125,264.25488 C 217.78174,265.25 174.84717,244.78223 174.3457,244.28271 C 173.84912,243.78125 165.86084,243.28223 163.8623,239.78955 C 161.86621,236.29443 160.86572,228.80469 158.87012,225.81348 C 156.87402,222.81445 154.68018,213.99805 155.37451,216.32568 L 158.87012,224.31152 C 158.87012,224.31152 149.8833,223.8125 144.88818,221.32031 C 139.89648,218.8252 119.42773,205.8418 117.92871,206.83984 C 116.43457,207.84033 105.44922,198.854 105.44922,198.854 L 107.94678,193.36035 C 108.08105,191.49072 95.467285,210.83691 93.466309,211.82959 C 91.470703,212.83008 68.005859,219.8208 61.516602,225.81348 C 55.027832,231.80127 47.535645,236.79346 51.033691,241.78809 C 58.538574,235.41309 66.010254,243.28223 66.511719,246.78027 C 67.010742,250.27344 58.023926,258.26172 55.030273,254.77148 C 52.03418,251.27344 60.524414,260.75928 59.024414,262.75781 C 57.527832,264.75342 49.536621,268.25146 49.038086,267.75 C 48.538574,267.25098 45.043457,254.27002 45.043457,254.27002 C 45.043457,254.27002 39.551758,266.25293 41.550781,269.24902 C 43.548828,272.24316 31.066894,271.24756 31.066894,265.25244 C 31.066894,259.26465 35.560547,254.27002 35.560547,254.27002 C 35.560547,254.27002 31.563476,247.28174 28.569824,247.77832 C 25.576172,248.28027 28.070801,236.29688 36.558594,237.29736 C 45.043457,238.29248 38.554199,214.83057 45.544922,213.33447 C 52.535156,211.83203 52.034179,216.82959 55.529297,213.33447 C 59.024414,209.83887 79.581543,180.41211 79.581543,180.41211 C 79.581543,180.41211 53.53125,179.38379 53.031738,179.38379 C 52.530273,179.38379 54.531738,175.89111 54.531738,175.89111 C 54.531738,175.89111 38.554199,175.39209 39.053222,178.38574 C 39.551758,181.38184 62.018554,192.36719 38.052734,198.85645 C 39.896972,192.90674 37.553711,188.86914 37.054687,188.86914 C 36.553222,188.86914 26.568847,182.38281 27.070312,174.3916 C 27.566894,166.40039 46.540527,167.40332 46.540527,167.40332 C 46.540527,167.40332 25.074218,151.92529 25.573242,139.94482 C 26.072265,127.96387 50.534179,117.47803 50.534179,117.47803 C 50.534179,117.47803 58.523437,112.48584 59.020019,107.49121 C 59.520996,102.49902 53.52832,84.525879 79.991699,87.521973 C 73.827148,92.12207 73.003418,97.007324 73.003418,97.007324 C 73.003418,97.007324 72.003418,116.97949 64.516113,118.97217 C 57.028808,120.97119 80.989746,119.97266 80.989746,119.97266 C 80.989746,119.97266 85.984375,121.46777 89.47705,116.47559 C 92.969726,111.48291 86.480957,93.512207 109.94531,92.511719 C 105.06689,99.538086 105.45215,104.99121 105.45215,104.99121 C 105.45215,104.99121 109.94531,119.9707 94.970703,124.96289 C 79.99414,129.95508 131.91504,132.45215 133.41455,108.48926 C 134.90869,84.522949 125.99902,78.167481 119.66602,78.167481 C 112.33252,78.167481 92.949707,86.812988 86.982421,82.524902 C 67.666015,71.167481 79.332519,52.833984 67.515136,47.579102 C 79.332519,44.167481 82.999023,63.167481 94.666015,67.500977 C 102.15332,70.996582 131.58789,44.97168 138.66602,80.500977 C 144.0083,62.844727 174.66602,58.833984 174.66602,58.833984 C 197.33252,58.500977 205.33252,85.500977 217.99902,66.833984 z "
         style="fill:#24459c;stroke:#010101"
         id="path869" />
      <path
         d="M 186.51367,155.41309 C 186.80469,155.41309 187.0957,151.6416 202.76904,150.479 C 218.44238,149.31592 214.9624,139.15674 216.41113,135.38281 C 217.86523,131.61133 223.09033,142.05957 222.79688,146.41602 C 222.50488,150.77002 212.63721,158.31543 202.18701,158.89551 C 191.73877,159.47803 186.22461,155.12402 186.51367,155.41309 z "
         style="fill:#d51f27;stroke:black"
         id="path870" />
      <path
         d="M 162.13184,126.09521 C 162.13184,126.09521 160.97168,136.25439 161.84375,136.83447"
         style="fill:none;stroke:#010101"
         id="path871" />
      <path
         d="M 159.51807,117.09863 C 159.51807,117.09863 150.23242,128.12646 152.26416,133.64551 C 154.29541,139.15674 161.55176,148.15576 161.84375,150.479 C 162.13184,152.80127 165.03467,144.96729 165.03467,144.96729"
         style="fill:none;stroke:#010101"
         id="path872" />
      <path
         d="M 165.32568,156.57324 C 165.32568,156.57324 165.61768,161.50732 161.26074,161.21289 C 156.90918,160.92432 168.80859,161.50732 168.22607,166.14941 C 167.646,170.79199 160.38965,169.34375 160.38965,169.34375"
         style="fill:none;stroke:#010101"
         id="path873" />
      <path
         d="M 170.55127,174.85986 C 170.25977,174.85986 169.38867,179.50293 174.3252,179.21387"
         style="fill:none;stroke:#010101"
         id="path874" />
      <path
         d="M 145.5874,163.82666 C 145.5874,163.82666 139.20215,169.05176 135.42578,168.18066"
         style="fill:none;stroke:#010101"
         id="path875" />
      <path
         d="M 141.5249,166.15234 C 141.5249,166.15234 138.62207,185.59912 134.26807,188.21289 C 129.91455,190.82715 145.00488,187.91943 148.20117,180.66797 C 151.39258,173.40869 149.93848,195.17871 142.10205,203.01563 C 150.81055,198.95264 156.03809,203.88672 159.51807,187.91943 C 159.22949,215.20801 172.58301,223.33643 172.58301,223.33643 L 174.3252,214.33691"
         style="fill:none;stroke:#010101;stroke-linejoin:round"
         id="path876" />
      <path
         d="M 169.96875,194.01611 C 169.68018,194.30713 172.28906,211.43457 180.70801,210.56055 C 189.12451,209.69189 176.93408,188.79053 176.93408,188.79053"
         style="fill:none;stroke:#010101"
         id="path877" />
      <path
         d="M 186.80713,189.95313 C 186.80713,189.95313 186.80713,203.5957 190.86963,203.88672 C 194.93262,204.17773 189.41846,190.53613 189.41846,190.53613"
         style="fill:none;stroke:#010101"
         id="path878" />
      <path
         d="M 195.22119,190.53076 C 195.22119,190.53076 200.44678,206.20654 198.12402,216.07715"
         style="fill:none;stroke:#010101"
         id="path879" />
      <path
         d="M 185.06445,215.78613 C 186.22461,217.52832 191.15869,226.52734 194.06104,227.6875"
         style="fill:none;stroke:#010101"
         id="path880" />
      <path
         d="M 173.4541,158.31543 C 173.4541,158.31543 170.83984,172.82861 192.02979,171.37744"
         style="fill:none;stroke:#010101"
         id="path883" />
      <path
         d="M 93.631348,212.59473 C 93.631348,212.59473 97.984863,217.23975 96.530762,223.625 C 95.07959,230.01025 88.983399,237.26465 85.500488,239.58984 C 82.018067,241.9126 109.01025,256.7168 115.97852,255.26514 C 122.94385,253.80908 105.52783,256.42334 107.55908,260.77686 C 109.59033,265.13086 112.49561,268.90479 116.55566,267.74268 C 120.62354,266.58252 122.07275,260.48584 122.07275,260.48584 C 122.07275,260.48584 118.00488,272.38525 121.4873,276.15918 C 124.9751,279.93311 135.71191,276.15918 135.71191,276.15918 C 135.71191,276.15918 133.0957,267.1626 130.48633,265.71094 C 127.875,264.25977 141.22363,270.64746 141.80371,278.19287 C 142.38867,285.73828 146.12988,274.37842 151.67383,272.96777 C 151.38281,272.38525 147.31982,265.42236 145.86865,265.71094 C 144.41748,266 149.64014,260.19434 152.54492,260.77686 C 155.44824,261.35449 153.125,251.77734 153.41406,251.77734 C 153.70508,251.77734 138.90088,251.19531 138.03223,256.42041 C 137.16064,261.64551 116.25977,244.81006 114.81055,239.2959 C 113.354,233.78174 123.81006,230.87402 122.93896,222.75147 C 122.06738,214.62061 119.45361,209.39551 116.84473,207.36426 L 104.06885,198.36768 L 93.631348,212.59473 z "
         style="fill:#24459c;stroke:#010101"
         id="path884" />
      <path
         d="M 96.242676,210.27441 C 97.11377,209.98291 119.17529,208.53174 119.17529,208.53174"
         style="fill:none;stroke:#010101"
         id="path885" />
      <path
         d="M 155.7998,253.74561 C 157.22852,253.38867 161.5498,253.80908 160.38965,261.64844 C 157.80078,258.29492 157.375,259.27295 156.06592,259.39111 L 155.7998,253.74561 z "
         style="fill:#ed2224;stroke:#010101"
         id="path886" />
      <path
         d="M 151.42334,276.03223 C 152.80127,276.54102 156.13428,279.33008 150.75439,285.14795 C 150.50635,280.91602 149.12842,281.01172 147.97852,280.37158 C 147.57813,277.85596 148.84473,275.45703 151.42334,276.03223 z "
         style="fill:#ed2224;stroke:#010101"
         id="path887" />
      <path
         d="M 129.77197,279.4292 C 130.39551,280.7583 131.8999,286.51563 123.98242,286.90332 C 125.10156,283.34961 124.65088,282.05273 124.28125,280.7915 L 129.77197,279.4292 z "
         style="fill:#ed2224;stroke:#010101"
         id="path888" />
      <path
         d="M 105.76855,262.5957 C 104.36523,263.04883 100.91797,265.68799 106.04736,271.729 C 106.4751,267.51172 107.35156,268.12012 108.52686,267.52979 L 105.76855,262.5957 z "
         style="fill:#ed2224;stroke:#010101"
         id="path889" />
      <path
         d="M 208.66064,270.06006 C 207.23193,269.70264 202.91113,270.24219 204.06885,278.08154 C 206.65967,274.72803 209.58252,275.58643 210.89453,275.70557 L 208.66064,270.06006 z "
         style="fill:#ed2224;stroke:#010101"
         id="path890" />
      <path
         d="M 236.33203,288.0127 C 236.14746,289.47656 233.96387,294.07129 227.06738,290.16553 C 230.17725,288.83838 230.60498,287.49609 230.96729,286.22949 L 236.33203,288.0127 z "
         style="fill:#ed2224;stroke:#010101"
         id="path891" />
      <path
         d="M 254.51563,274.39355 C 255.53369,275.4624 257.29883,279.4292 249.91064,282.29102 C 251.54688,278.38037 250.48828,278.49707 249.73828,277.41797 L 254.51563,274.39355 z "
         style="fill:#ed2224;stroke:#010101"
         id="path892" />
      <path
         d="M 226.67432,117.57471 C 226.31738,115.07959 226.73975,107.52881 234.57715,109.55518 C 231.22314,114.07666 232.20605,114.82129 232.32227,117.10596 L 226.67432,117.57471 z "
         style="fill:#ed2224;stroke:#010101;stroke-width:0.8258"
         id="path893" />
      <path
         d="M 252.89453,254.93848 C 254.36621,254.95166 258.44629,256.44043 255.3667,263.74072 C 253.69482,259.84473 253.03906,260.69092 251.73926,260.47803 L 252.89453,254.93848 z "
         style="fill:#ed2224;stroke:#010101"
         id="path894" />
      <path
         d="M 69.536133,247.11719 C 70.938965,247.5708 75.338867,248.90039 72.114258,255.41992 C 70.498535,252.15283 67.950684,252.64355 66.780273,252.05127 L 69.536133,247.11719 z "
         style="fill:#ed2224;stroke:#010101"
         id="path895" />
      <path
         d="M 58.52832,266.99756 C 59.354004,268.64941 60.549805,274.43652 53.305664,277.11621 C 55.296387,271.99756 53.69043,271.26074 53.113281,269.63672 L 58.52832,266.99756 z "
         style="fill:#ed2224;stroke:#010101;stroke-width:0.71619999"
         id="path896" />
      <path
         d="M 39.739258,273.70459 C 39.719727,275.17627 38.209473,279.25195 30.925293,276.13623 C 34.830566,274.48193 33.989746,273.82129 34.20752,272.52686 L 39.739258,273.70459 z "
         style="fill:#ed2224;stroke:#010101"
         id="path897" />
      <path
         d="M 25.932617,241.01563 C 24.673828,240.25586 20.411133,239.3999 19.23877,247.23926 C 22.693359,244.7793 22.814941,245.84326 24.033203,246.33447 L 25.932617,241.01563 z "
         style="fill:#ed2224;stroke:#010101"
         id="path898" />
      <path
         d="M 249.79639,118.42773 C 251.72949,116.79932 258.3418,113.14697 260.79102,120.87012 C 255.1792,120.42627 255.06738,121.65283 253.1958,122.96436 L 249.79639,118.42773 z "
         style="fill:#ed2224;stroke:#010101;stroke-width:0.8258"
         id="path899" />
      <path
         d="M 256.24268,142.20605 C 258.65918,141.4873 265.34082,137.94873 260.22168,131.67236 C 257.5166,136.6167 256.43018,136.03418 254.30811,136.87988 L 256.24268,142.20605 z "
         style="fill:#ed2224;stroke:#010101;stroke-width:0.8258"
         id="path900" />
      <path
         d="M 254.2417,160.54688 C 256.13623,160.64063 261.7666,159.7998 259.70801,154.0625 C 256.55225,156.89453 255.92334,156.20801 254.20117,156.2793 L 254.2417,160.54688 z "
         style="fill:#ed2224;stroke:#010101;stroke-width:0.62180001"
         id="path901" />
      <circle
         cx="185.74927"
         cy="129.00098"
         r="4.416748"
         style="fill:none;stroke:#010101;stroke-width:1.5"
         id="circle2148"
         d="m 190.16602,129.00098 c 0,2.4393 -1.97745,4.41674 -4.41675,4.41674 -2.43931,0 -4.41675,-1.97744 -4.41675,-4.41674 0,-2.43931 1.97744,-4.41675 4.41675,-4.41675 2.4393,0 4.41675,1.97744 4.41675,4.41675 z" />
      <path
         d="M 176.66602,133.16748 C 176.66602,133.16748 178.83301,131.00049 180.66602,128.50049 C 182.49902,126.00049 185.49902,123.00098 190.33252,125.66748 C 191.49902,126.16748 192.16602,127.00049 194.16602,127.33398"
         style="fill:none;stroke:#010101"
         id="path2150" />
    </g>
    <use
       transform="matrix(0.97,0,0,0.97,15.76672,121.9781)"
       id="use2152"
       x="0"
       y="0"
       width="1000"
       height="600"
       xlink:href="#lion" />
  </g>
</svg>
